# xmcd
#
# Track frame offsets:
#	150
#	23686
#	43611
#	62197
#	81878
#	104428
#	132538
#	148355
#	151567
#	166770
#	183232
#	207648
#	216846
#	220545
#	238255
#
# Disc length: 3439 seconds
# Revision: 0
# Processed by: cddbd v1.5.2PL0 Copyright (c) Steve Scherf et al.
# Submitted via: dBpowerAMP V12.0
#
DISCID=d90d6d0f
DTITLE=SOFT - Kadans' a péyi la
DYEAR=2005
DGENRE=Creole blues
TTITLE0=Kadans a péyi la
TTITLE1=Lodè lanmou [feat. CHARLES NAIGRE and MICHEL MADO]
TTITLE2=La demande [feat. JEAN-PHILIPPE FANFANT]
TTITLE3=Sé lanmou-la ka palé [feat. DOMINIQUE BERNIER and SANDRA JEAN-CHARLES]
TTITLE4=Jean fouyé
TTITLE5=Dédé [feat. SONY TROUPÉ and DOMINIQUE LORTÉ]
TTITLE6=Krim kont la Gwadloup
TTITLE7=Biguine (interlude)
TTITLE8=Biguine [feat. RAMON PYRMÉ and CHARLES NAIGRE]
TTITLE9=Lafrik ka kryé mwen [feat. CYRIL MABINGO and JULIE COLLOT]
TTITLE10=Gadé yo [feat. LUKUBER SÉJOR, DOMINIK COCO, OLIVIER JUSTE and JEAN-MICHEL LESDEL]
TTITLE11=Fouté la pé
TTITLE12=Kadans a péyi la (Interlude) [feat. FRANÇOIS LADREZEAU]
TTITLE13=Lespwa (Instrumental)
TTITLE14=Dédé (Radio edit)
EXTD=
EXTT0=
EXTT1=
EXTT2=
EXTT3=
EXTT4=
EXTT5=
EXTT6=
EXTT7=
EXTT8=
EXTT9=
EXTT10=
EXTT11=
EXTT12=
EXTT13=
EXTT14=
PLAYORDER=
